HIERARCHY
ROOT joint_0
{
	OFFSET 0.000000 0.000000 0.000000
	CHANNELS 6 Xposition Yposition Zposition Zrotation Yrotation Xrotation 
	JOINT joint_1
	{
		OFFSET -0.613770 -1.125488 108.300049
		CHANNELS 3 Zrotation Yrotation Xrotation
		JOINT joint_2
		{
			OFFSET -10.925537 -0.900513 98.259033
			CHANNELS 3 Zrotation Yrotation Xrotation
			JOINT joint_3
			{
				OFFSET -11.287842 0.313599 98.110962
				CHANNELS 3 Zrotation Yrotation Xrotation
				JOINT joint_4
				{
					OFFSET -2.124268 2.484680 136.491943
					CHANNELS 3 Zrotation Yrotation Xrotation
					JOINT joint_5
					{
						OFFSET 16.640869 1.801270 81.862061
						CHANNELS 3 Zrotation Yrotation Xrotation
						End Site
						{
							OFFSET 0.000000 0.000000 0.000000
						}
					}
				}
				JOINT joint_6
				{
					OFFSET 0.447998 -28.248108 77.258057
					CHANNELS 3 Zrotation Yrotation Xrotation
					JOINT joint_7
					{
						OFFSET 7.918701 -130.256348 -24.086060
						CHANNELS 3 Zrotation Yrotation Xrotation
						JOINT joint_8
						{
							OFFSET 62.431885 -29.384277 -258.572021
							CHANNELS 3 Zrotation Yrotation Xrotation
							JOINT joint_9
							{
								OFFSET 53.743164 -21.907532 -238.024963
								CHANNELS 3 Zrotation Yrotation Xrotation
								End Site
								{
									OFFSET 0.000000 0.000000 0.000000
								}
							}
						}
					}
				}
				JOINT joint_10
				{
					OFFSET -2.846924 31.052063 76.130981
					CHANNELS 3 Zrotation Yrotation Xrotation
					JOINT joint_11
					{
						OFFSET 9.073730 131.055603 -18.752930
						CHANNELS 3 Zrotation Yrotation Xrotation
						JOINT joint_12
						{
							OFFSET 52.981201 29.883301 -260.613037
							CHANNELS 3 Zrotation Yrotation Xrotation
							JOINT joint_13
							{
								OFFSET 62.237793 15.935547 -236.423035
								CHANNELS 3 Zrotation Yrotation Xrotation
								End Site
								{
									OFFSET 0.000000 0.000000 0.000000
								}
							}
						}
					}
				}
			}
		}
	}
	JOINT joint_14
	{
		OFFSET 22.046143 -72.816772 -98.122925
		CHANNELS 3 Zrotation Yrotation Xrotation
		JOINT joint_15
		{
			OFFSET -23.673828 -54.692932 -469.927032
			CHANNELS 3 Zrotation Yrotation Xrotation
			JOINT joint_16
			{
				OFFSET -34.875244 -46.505249 -395.890999
				CHANNELS 3 Zrotation Yrotation Xrotation
				JOINT joint_17
				{
					OFFSET 168.486328 14.224182 -74.182999
					CHANNELS 3 Zrotation Yrotation Xrotation
					End Site
					{
						OFFSET 0.000000 0.000000 0.000000
					}
				}
			}
		}
	}
	JOINT joint_18
	{
		OFFSET -1.731934 82.408569 -92.846924
		CHANNELS 3 Zrotation Yrotation Xrotation
		JOINT joint_19
		{
			OFFSET -6.908936 32.203369 -472.535034
			CHANNELS 3 Zrotation Yrotation Xrotation
			JOINT joint_20
			{
				OFFSET -13.963135 23.196533 -399.207993
				CHANNELS 3 Zrotation Yrotation Xrotation
				JOINT joint_21
				{
					OFFSET 168.417725 19.834229 -73.041004
					CHANNELS 3 Zrotation Yrotation Xrotation
					End Site
					{
						OFFSET 0.000000 0.000000 0.000000
					}
				}
			}
		}
	}
}
MOTION
Frames: 10
Frame Time: 0.016667
-2583.297363 899.394958 1060.520020 -1.592791 -0.720099 -1.381174 2.381625 2.456387 2.310877 2.040365 -0.422305 -0.568223 2.128835 0.611389 0.205035 0.124147 0.858611 -0.719330 0.000000 0.000000 0.000000 1.413882 1.023037 -0.629656 -0.182305 1.371086 0.286589 0.709018 -2.108402 2.334507 0.000000 0.000000 0.000000 4.142421 -0.146710 -2.550865 -0.457459 -0.900808 -1.247673 -0.102755 1.346115 -0.746449 0.000000 0.000000 0.000000 0.774431 -2.759253 7.090337 0.681703 1.731605 -0.227050 0.642417 1.841721 0.122343 0.000000 0.000000 0.000000 1.334912 -1.544119 -0.738654 1.576365 1.923524 -0.751848 1.424792 0.067846 0.607661 0.000000 0.000000 0.000000 
-2584.040283 899.581909 1060.249023 -3.708537 -3.602645 -0.790932 3.093879 5.688261 1.985040 2.721773 -0.430218 -0.622491 2.806164 0.876995 0.118033 0.153277 0.013014 -0.755714 0.000000 0.000000 0.000000 2.052673 0.651496 -0.749364 -0.173964 1.120452 0.220071 0.706270 -2.106956 2.329226 0.000000 0.000000 0.000000 3.694950 -0.521649 -2.542845 -0.491722 -1.217624 -1.241473 -0.096723 1.346994 -0.722036 0.000000 0.000000 0.000000 1.311404 0.058734 6.583674 1.431821 2.082126 -0.255118 1.414921 1.736061 0.466836 0.000000 0.000000 0.000000 2.212226 1.807011 -1.268813 2.195218 1.889072 -0.723882 2.011864 -0.315323 0.905788 0.000000 0.000000 0.000000 
-2584.189453 899.774963 1060.089966 -4.945064 -5.188665 -0.411156 3.484788 7.397026 1.858903 3.098054 -0.395152 -0.704659 3.187194 0.976427 0.063296 0.169066 -0.403717 -0.787117 0.000000 0.000000 0.000000 2.385895 0.485574 -0.873557 -0.163518 1.023214 0.227616 0.703205 -2.096443 2.323293 0.000000 0.000000 0.000000 3.480441 -0.679879 -2.492376 -0.521811 -1.343119 -1.304570 -0.095405 1.347125 -0.715546 0.000000 0.000000 0.000000 1.619471 1.631498 6.271931 1.866496 2.259938 -0.273175 1.855557 1.709165 0.660394 0.000000 0.000000 0.000000 2.711273 3.693657 -1.577802 2.551022 1.832956 -0.721433 2.355332 -0.458972 1.070202 0.000000 0.000000 0.000000 
-2583.156250 899.930786 1060.171997 -4.464093 -4.305940 -0.594361 3.308073 6.223248 2.014170 2.921851 -0.442368 -0.676164 3.009670 0.931269 0.088477 0.164471 0.051264 -0.815505 0.000000 0.000000 0.000000 2.161619 0.764735 -0.803830 -0.214858 1.261107 0.157851 0.746560 -2.313371 2.434295 0.000000 0.000000 0.000000 3.714709 -0.449892 -2.570917 -0.503245 -1.147244 -1.324520 -0.103240 1.331453 -0.741775 0.000000 0.000000 0.000000 1.522928 0.830574 6.393458 1.711664 2.083268 -0.243384 1.679272 1.800470 0.576247 0.000000 0.000000 0.000000 2.520169 2.811532 -1.455330 2.412710 1.668389 -0.726401 2.236950 -0.326865 1.004116 0.000000 0.000000 0.000000 
-2581.529297 900.093689 1060.365967 -3.114869 -2.155373 -1.030147 2.825302 3.554177 2.315689 2.455621 -0.485029 -0.614968 2.542339 0.762361 0.148013 0.147652 0.931045 -0.842951 0.000000 0.000000 0.000000 1.643786 1.239651 -0.694194 -0.273778 1.640140 0.107597 0.791595 -2.518489 2.553222 0.000000 0.000000 0.000000 4.172613 -0.010835 -2.652842 -0.470702 -0.770799 -1.364817 -0.116787 1.315749 -0.790070 0.000000 0.000000 0.000000 1.214298 -1.193148 6.720036 1.251486 1.737941 -0.197558 1.183453 1.957458 0.347692 0.000000 0.000000 0.000000 1.970430 0.494578 -1.117340 2.023111 1.481144 -0.742627 1.882754 -0.026612 0.816634 0.000000 0.000000 0.000000 
-2580.356445 900.295776 1060.442993 -2.023076 -0.429618 -1.313317 2.397416 1.398956 2.518494 2.051027 -0.479444 -0.591352 2.140476 0.559315 0.191649 0.133352 1.584909 -0.863940 0.000000 0.000000 0.000000 1.214944 1.416247 -0.661035 -0.240740 1.733962 0.191513 0.701705 -2.002293 2.338392 0.000000 0.000000 0.000000 4.500109 0.360026 -2.647865 -0.450139 -0.440969 -1.402463 -0.136119 1.349896 -0.871192 0.000000 0.000000 0.000000 0.954649 -2.850119 6.931101 0.859176 1.528994 -0.174461 0.773935 2.042039 0.162618 0.000000 0.000000 0.000000 1.514059 -1.457729 -0.882345 1.718460 1.519661 -0.757693 1.592754 0.170340 0.668363 0.000000 0.000000 0.000000 
-2580.242676 900.582764 1060.286011 -1.610502 0.214824 -1.320812 2.150616 0.468510 2.484993 1.827286 -0.398289 -0.587174 1.919561 0.405081 0.211598 0.134597 1.721594 -0.889032 0.000000 0.000000 0.000000 1.035381 0.926260 -0.573631 -0.089024 1.183976 0.289637 0.331911 0.114586 1.535912 0.000000 0.000000 0.000000 4.507247 0.568221 -2.608710 -0.423356 -0.234345 -1.294088 -0.182272 1.441372 -1.064496 0.000000 0.000000 0.000000 0.853930 -3.530798 6.900169 0.684648 1.553378 -0.193022 0.613208 1.979026 0.098175 0.000000 0.000000 0.000000 1.335393 -2.381255 -0.903038 1.635086 1.918510 -0.746319 1.483013 0.065890 0.633104 0.000000 0.000000 0.000000 
-2580.581787 900.909119 1060.011963 -1.443165 0.448394 -1.227914 1.971656 0.000600 2.344794 1.672927 -0.272919 -0.583994 1.767414 0.272439 0.222963 0.142590 1.645108 -0.914605 0.000000 0.000000 0.000000 0.977265 0.126162 -0.373793 0.087392 0.334508 0.366018 -0.215245 2.931840 0.334449 0.000000 0.000000 0.000000 4.364351 0.699596 -2.573220 -0.390720 -0.087828 -1.101130 -0.237798 1.578540 -1.302770 0.000000 0.000000 0.000000 0.810717 -3.869066 6.773145 0.579614 1.722842 -0.224094 0.545488 1.817487 0.082518 0.000000 0.000000 0.000000 1.258844 -2.964307 -1.025958 1.641216 2.552578 -0.716544 1.438912 -0.211018 0.646368 0.000000 0.000000 0.000000 
-2580.601562 901.177124 1059.734009 -1.355383 0.572186 -1.166334 1.891723 -0.247650 2.211631 1.612699 -0.192303 -0.575657 1.706919 0.197160 0.222003 0.141260 1.616482 -0.901325 0.000000 0.000000 0.000000 1.015268 -0.405792 -0.269024 0.242472 -0.207649 0.632887 -0.645924 4.500462 -0.845774 0.000000 0.000000 0.000000 4.223841 0.724079 -2.570497 -0.376568 -0.049250 -0.976910 -0.243982 1.792443 -1.376729 0.000000 0.000000 0.000000 0.790474 -4.160378 6.663318 0.478805 2.077400 -0.213099 0.517302 1.555356 0.092566 0.000000 0.000000 0.000000 1.218503 -3.450815 -1.118880 1.683297 3.292205 -0.676522 1.419160 -0.589691 0.682031 0.000000 0.000000 0.000000 
-2579.869629 901.284790 1059.515015 -1.207860 0.844706 -1.161260 1.880418 -0.519347 2.048255 1.625540 -0.200581 -0.547616 1.714448 0.179299 0.204296 0.115144 1.819750 -0.800850 0.000000 0.000000 0.000000 1.004381 -0.314596 -0.484962 0.439423 -0.089562 1.490326 -0.783169 3.553422 -1.874934 0.000000 0.000000 0.000000 4.113451 0.654235 -2.600593 -0.385953 -0.105278 -1.001507 -0.144972 2.131524 -1.089063 0.000000 0.000000 0.000000 0.767476 -4.682114 6.568086 0.317829 2.675732 -0.108440 0.479103 1.178863 0.107952 0.000000 0.000000 0.000000 1.156765 -4.122117 -1.167130 1.726011 4.150679 -0.614198 1.391022 -1.041899 0.722593 0.000000 0.000000 0.000000 
